<svg width="128" height="128" viewBox="0 0 24 24" fill="none" stroke="#56585E" stroke-width="2" stroke-linecap="round" stroke-linejoin="round" xmlns="http://www.w3.org/2000/svg"><path d="M5 4.5 h8.4 a1.4 1.4 0 0 1 1.4 1.4 V13"></path><path d="M5 4.5 a1.4 1.4 0 0 0 -1.4 1.4 V18.6 a1.4 1.4 0 0 0 1.4 1.4 h8.4 a1.4 1.4 0 0 0 1.4 -1.4 V17"></path><line x1="6.6" y1="8" x2="11.5" y2="8"></line><line x1="6.6" y1="11" x2="9.4" y2="11"></line><path d="M20.4 4 C21.4 6.6 20.7 9.6 18.6 12 C17.1 13.7 15 14.8 12.7 15.3 C14.2 12.8 15.9 10.2 17.6 7.9 C18.6 6.5 19.5 5 20.4 4 Z" fill="#B3AC91" stroke="none" opacity="0.9"></path><path d="M20.4 4 L12.7 15.3 L10.8 18"></path><line x1="17.6" y1="7.9" x2="15.4" y2="8.3"></line><line x1="16" y1="10.3" x2="13.9" y2="10.8"></line></svg>