<svg width="128" height="128" viewBox="0 0 24 24" fill="none" stroke="#56585E" stroke-width="2" stroke-linecap="round" stroke-linejoin="round" xmlns="http://www.w3.org/2000/svg"><path d="M6 8 h12 l-1 11.5 a1.6 1.6 0 0 1 -1.6 1.5 H8.6 a1.6 1.6 0 0 1 -1.6 -1.5 Z" fill="#B3AC91" stroke="none" opacity="0.22"></path><line x1="3.5" y1="6" x2="20.5" y2="6"></line><path d="M9.5 6 V4.6 a1.3 1.3 0 0 1 1.3 -1.3 h2.4 a1.3 1.3 0 0 1 1.3 1.3 V6"></path><path d="M6 8 l1 11.5 a1.6 1.6 0 0 0 1.6 1.5 h6.8 a1.6 1.6 0 0 0 1.6 -1.5 L18 8"></path><line x1="10" y1="11" x2="10.4" y2="18"></line><line x1="14" y1="11" x2="13.6" y2="18"></line></svg>