<svg width="128" height="128" viewBox="0 0 24 24" fill="none" stroke="#56585E" stroke-width="1.8" stroke-linejoin="round" stroke-linecap="round" xmlns="http://www.w3.org/2000/svg"><path d="M18.12 9.53 L20.99 9.25 L20.99 14.75 L18.12 14.47 A6.6 6.6 0 0 1 17.20 16.06 L18.87 18.41 L14.11 21.16 L12.92 18.54 A6.6 6.6 0 0 1 11.08 18.54 L9.89 21.16 L5.13 18.41 L6.80 16.06 A6.6 6.6 0 0 1 5.88 14.47 L3.01 14.75 L3.01 9.25 L5.88 9.53 A6.6 6.6 0 0 1 6.80 7.94 L5.13 5.59 L9.89 2.84 L11.08 5.46 A6.6 6.6 0 0 1 12.92 5.46 L14.11 2.84 L18.87 5.59 L17.20 7.94 A6.6 6.6 0 0 1 18.12 9.53 Z"></path><circle cx="12" cy="12" r="3.4" fill="none"></circle></svg>